<svg xmlns="http://www.w3.org/2000/svg" xmlns:xlink="http://www.w3.org/1999/xlink" version="1.1" width="256" height="256" viewBox="0 0 256 256" xml:space="preserve">
<desc>Created with Fabric.js 1.7.22</desc>
<defs>
</defs>
<g transform="translate(128 128) scale(1.21 1.21)" style="">
	<g style="stroke: none; stroke-width: 0; stroke-dasharray: none; stroke-linecap: butt; stroke-linejoin: miter; stroke-miterlimit: 10; fill: none; fill-rule: nonzero; opacity: 1;" transform="translate(-104.85 -104.85000000000001) scale(2.33 2.33)" >
	<path d="M 48.566 69.169 c 13.388 0.637 23.726 4.815 23.726 9.874 C 72.292 84.542 60.073 89 45 89 s -27.292 -4.458 -27.292 -9.958 c 0 -5.059 10.338 -9.236 23.726 -9.874" style="stroke: none; stroke-width: 1; stroke-dasharray: none; stroke-linecap: butt; stroke-linejoin: miter; stroke-miterlimit: 10; fill: rgb(221,200,47); fill-rule: nonzero; opacity: 1;" transform=" matrix(1 0 0 1 0 0) " stroke-linecap="round" />
	<path d="M 45 1 c 13.883 0 25.137 11.254 25.137 25.137 c 0 19.624 -20.792 33.206 -25.137 52.757 c -4.345 -19.551 -25.137 -33.133 -25.137 -52.757 C 19.863 12.254 31.117 1 45 1 z" style="stroke: none; stroke-width: 1; stroke-dasharray: none; stroke-linecap: butt; stroke-linejoin: miter; stroke-miterlimit: 10; fill: rgb(255,49,64); fill-rule: nonzero; opacity: 1;" transform=" matrix(1 0 0 1 0 0) " stroke-linecap="round" />
	<circle cx="45.003" cy="26.273000000000003" r="10.643" style="stroke: none; stroke-width: 1; stroke-dasharray: none; stroke-linecap: butt; stroke-linejoin: miter; stroke-miterlimit: 10; fill: rgb(255,255,255); fill-rule: nonzero; opacity: 1;" transform="  matrix(1 0 0 1 0 0) "/>
	<path d="M 45 37.918 c -6.42 0 -11.643 -5.223 -11.643 -11.643 S 38.58 14.633 45 14.633 s 11.643 5.223 11.643 11.643 S 51.42 37.918 45 37.918 z M 45 16.633 c -5.317 0 -9.643 4.326 -9.643 9.643 c 0 5.317 4.326 9.643 9.643 9.643 c 5.317 0 9.643 -4.326 9.643 -9.643 C 54.643 20.958 50.317 16.633 45 16.633 z" style="stroke: none; stroke-width: 1; stroke-dasharray: none; stroke-linecap: butt; stroke-linejoin: miter; stroke-miterlimit: 10; fill: rgb(0,0,0); fill-rule: nonzero; opacity: 1;" transform=" matrix(1 0 0 1 0 0) " stroke-linecap="round" />
	<path d="M 45 79.895 c -0.469 0 -0.875 -0.325 -0.976 -0.783 c -1.92 -8.641 -7.233 -16.245 -12.372 -23.599 c -6.288 -8.999 -12.79 -18.304 -12.79 -29.375 C 18.863 11.725 30.588 0 45 0 s 26.137 11.725 26.137 26.137 c 0 11.071 -6.502 20.376 -12.789 29.375 c -5.139 7.354 -10.451 14.958 -12.372 23.599 C 45.875 79.569 45.469 79.895 45 79.895 z M 45 2 C 31.691 2 20.863 12.828 20.863 26.137 c 0 10.442 6.037 19.082 12.429 28.23 c 4.55 6.512 9.234 13.216 11.708 20.765 c 2.474 -7.549 7.158 -14.253 11.708 -20.765 c 6.392 -9.147 12.429 -17.788 12.429 -28.23 C 69.137 12.828 58.309 2 45 2 z" style="stroke: none; stroke-width: 1; stroke-dasharray: none; stroke-linecap: butt; stroke-linejoin: miter; stroke-miterlimit: 10; fill: rgb(0,0,0); fill-rule: nonzero; opacity: 1;" transform=" matrix(1 0 0 1 0 0) " stroke-linecap="round" />
	<path d="M 45 85.381 c -9.876 0 -18.488 -2.187 -21.43 -5.44 c -0.371 -0.41 -0.338 -1.042 0.071 -1.413 c 0.409 -0.371 1.042 -0.338 1.412 0.071 c 2.545 2.815 10.747 4.782 19.946 4.782 c 0.552 0 1 0.447 1 1 S 45.552 85.381 45 85.381 z" style="stroke: none; stroke-width: 1; stroke-dasharray: none; stroke-linecap: butt; stroke-linejoin: miter; stroke-miterlimit: 10; fill: rgb(0,0,0); fill-rule: nonzero; opacity: 1;" transform=" matrix(1 0 0 1 0 0) " stroke-linecap="round" />
	<path d="M 45 90 c -15.864 0 -28.292 -4.813 -28.292 -10.958 c 0 -5.618 10.378 -10.19 24.678 -10.872 c 0.533 -0.04 1.02 0.399 1.046 0.951 c 0.026 0.552 -0.4 1.021 -0.952 1.047 c -14.255 0.679 -22.773 5.045 -22.773 8.874 C 18.708 83.279 29.506 88 45 88 s 26.292 -4.721 26.292 -8.958 c 0 -3.829 -8.519 -8.195 -22.773 -8.874 c -0.552 -0.026 -0.978 -0.495 -0.951 -1.047 s 0.514 -0.982 1.047 -0.951 c 14.299 0.682 24.678 5.254 24.678 10.872 C 73.292 85.187 60.864 90 45 90 z" style="stroke: none; stroke-width: 1; stroke-dasharray: none; stroke-linecap: butt; stroke-linejoin: miter; stroke-miterlimit: 10; fill: rgb(0,0,0); fill-rule: nonzero; opacity: 1;" transform=" matrix(1 0 0 1 0 0) " stroke-linecap="round" />
</g>
</g>
</svg>