<svg xmlns="http://www.w3.org/2000/svg"  viewBox="0 0 64 64" width="64px" height="64px"><path fill="#72caaf" d="M57,13v38c0,3.31-2.69,6-6,6H13c-3.31,0-6-2.69-6-6V13c0-3.31,2.69-6,6-6h38C54.31,7,57,9.69,57,13z"/><path fill="#97e0bb" d="M53,7H11l-4,4c0,1.657,1.343,3,3,3h44c1.657,0,3-1.343,3-3L53,7z"/><path fill="#8d6c9f" d="M51,58H13c-3.859,0-7-3.141-7-7V13c0-3.859,3.141-7,7-7h38c3.859,0,7,3.141,7,7v38	C58,54.859,54.859,58,51,58z M13,8c-2.757,0-5,2.243-5,5v38c0,2.757,2.243,5,5,5h38c2.757,0,5-2.243,5-5V13c0-2.757-2.243-5-5-5H13z"/><path fill="#8d6c9f" d="M32.361,51.149c-0.175,0-0.352-0.046-0.513-0.142c-0.474-0.284-0.628-0.898-0.345-1.372 l1.027-1.716c0.284-0.473,0.898-0.627,1.372-0.345c0.474,0.284,0.628,0.898,0.345,1.372l-1.027,1.716 C33.033,50.976,32.701,51.149,32.361,51.149z"/><path fill="#8d6c9f" d="M27.964,48.203c-0.208,0-0.417-0.064-0.597-0.198c-0.442-0.33-0.534-0.956-0.204-1.399l1.194-1.604 c0.331-0.442,0.956-0.534,1.399-0.204c0.442,0.33,0.534,0.956,0.204,1.399l-1.194,1.604C28.57,48.064,28.27,48.203,27.964,48.203z"/><path fill="#8d6c9f" d="M23.882,44.84c-0.24,0-0.48-0.086-0.672-0.26c-0.409-0.371-0.439-1.004-0.068-1.412l1.345-1.48 c0.372-0.409,1.005-0.438,1.412-0.068c0.409,0.371,0.439,1.004,0.068,1.412l-1.345,1.48C24.425,44.729,24.153,44.84,23.882,44.84z"/><path fill="#8d6c9f" d="M20.14,41.103c-0.271,0-0.543-0.11-0.74-0.328c-0.371-0.408-0.341-1.041,0.068-1.412l1.48-1.345 c0.408-0.369,1.04-0.342,1.412,0.068c0.371,0.408,0.341,1.041-0.068,1.412l-1.48,1.345C20.62,41.017,20.38,41.103,20.14,41.103z"/><path fill="#8d6c9f" d="M16.784,37.014c-0.306,0-0.606-0.14-0.803-0.403c-0.33-0.442-0.238-1.069,0.205-1.398l1.604-1.194 c0.442-0.332,1.068-0.237,1.398,0.205s0.238,1.069-0.205,1.398l-1.604,1.194C17.201,36.949,16.991,37.014,16.784,37.014z"/><path fill="#8d6c9f" d="M13.833,32.62c-0.34,0-0.672-0.173-0.859-0.486c-0.283-0.474-0.129-1.088,0.345-1.372l1.716-1.027 c0.475-0.281,1.088-0.13,1.372,0.345c0.283,0.474,0.129,1.088-0.345,1.372l-1.716,1.027C14.185,32.574,14.008,32.62,13.833,32.62z"/><path fill="#faefde" d="M51.47,44.47c-0.18,0.22-0.38,0.44-0.58,0.66c-0.71,0.75-1.55,1.46-2.4,1.81	c-2.78,1.13-5.57,1.13-8.99-0.84l-0.02-0.05c-9.25-4.45-17.09-12.29-21.54-21.54l-0.01-0.01c-1.97-3.42-1.97-6.21-0.84-8.99	c0.35-0.85,1.05-1.68,1.8-2.4c0.22-0.2,0.45-0.4,0.67-0.58c1.03-0.86,2.59-0.65,3.34,0.46l4.54,6.73c0.54,0.81,0.49,1.87-0.12,2.63	l-0.98,1.21l-1.49,1.84c3.38,5.52,8.24,10.39,13.76,13.77l1.83-1.48l1.21-0.98c0.76-0.62,1.82-0.66,2.63-0.12l6.73,4.54	C52.12,41.88,52.33,43.44,51.47,44.47z"/><path fill="#fff8ee" d="M51.47,44.47c-0.18,0.22-0.38,0.44-0.58,0.66c-0.73-0.02-1.47-0.24-2.12-0.68l-6.73-4.54	c-0.81-0.55-1.35-1.35-1.6-2.22l1.21-0.98c0.76-0.62,1.82-0.66,2.63-0.12l6.73,4.54C52.12,41.88,52.33,43.44,51.47,44.47z"/><path fill="#fff8ee" d="M27.32,22.35l-0.98,1.21c-0.88-0.24-1.67-0.79-2.22-1.6l-4.54-6.73c-0.44-0.65-0.67-1.39-0.69-2.12	c0.22-0.2,0.45-0.4,0.67-0.58c1.03-0.86,2.59-0.65,3.34,0.46l4.54,6.73C27.98,20.53,27.93,21.59,27.32,22.35z"/><path fill="#8d6c9f" d="M44.842,48.694c-1.915,0-3.831-0.573-5.844-1.728c-0.061-0.034-0.117-0.075-0.168-0.12	c-9.31-4.538-17.213-12.458-21.727-21.778c-0.016-0.021-0.029-0.043-0.042-0.065c-1.958-3.413-2.243-6.548-0.899-9.866	c0.436-1.077,1.362-2.212,2.754-3.373c0.714-0.596,1.649-0.864,2.568-0.73c0.911,0.129,1.728,0.639,2.24,1.397l4.541,6.731	c0.793,1.177,0.727,2.709-0.167,3.813l-2.026,2.504c3.148,4.932,7.536,9.316,12.467,12.461l2.485-2.012	c1.103-0.893,2.635-0.961,3.813-0.167l6.731,4.542c0.759,0.513,1.269,1.328,1.397,2.239c0.131,0.92-0.136,1.855-0.73,2.568	c-1.159,1.391-2.294,2.317-3.372,2.755C47.503,48.417,46.173,48.694,44.842,48.694z M40.182,45.339	c2.832,1.574,5.214,1.773,7.932,0.674c0.759-0.308,1.654-1.063,2.587-2.183c0.237-0.283,0.339-0.641,0.287-1.006	c-0.051-0.356-0.241-0.663-0.537-0.862l0,0l-6.731-4.542c-0.442-0.299-1.02-0.272-1.437,0.063l-3.039,2.46	c-0.329,0.267-0.792,0.296-1.15,0.075c-5.638-3.448-10.646-8.453-14.1-14.091c-0.222-0.361-0.191-0.822,0.075-1.151l2.476-3.059	c0.337-0.416,0.362-0.994,0.063-1.437l-4.541-6.731c-0.199-0.295-0.506-0.486-0.863-0.537c-0.369-0.052-0.723,0.051-1.006,0.287	c-1.12,0.935-1.875,1.829-2.182,2.587c-1.111,2.745-0.896,5.148,0.722,8.018c0.042,0.054,0.079,0.112,0.108,0.174	c4.345,9.043,12.022,16.723,21.065,21.069C40.012,45.196,40.104,45.262,40.182,45.339z"/></svg>